<svg width="60" height="60" viewBox="0 0 60 60" fill="none" xmlns="http://www.w3.org/2000/svg">
<path d="M48.504 19.5852L28.6704 10.608C28.4712 10.608 12.144 19.7148 12.144 19.8756L12.0084 54.6816H48.7284L48.864 19.8816C48.8555 19.7946 48.8128 19.7145 48.7453 19.659C48.6778 19.6034 48.5911 19.5769 48.504 19.5852Z" fill="#E2E2E2"/>
<path d="M40.8156 16.1112L28.656 10.608C28.578 10.608 26.01 12.0132 22.9224 13.728L12.1224 21.3504L12.0912 29.304L29.6112 16.9368C29.7775 16.8196 29.9759 16.7567 30.1794 16.7567C30.3828 16.7567 30.5813 16.8196 30.7476 16.9368L48.8112 29.6868L48.8424 21.7776L40.8156 16.1112Z" fill="#C3C7C9"/>
<path d="M50.7516 27.5317L30.5676 13.2841C30.4015 13.167 30.2032 13.1041 30 13.1041C29.7968 13.1041 29.5985 13.167 29.4324 13.2841L9.24839 27.5317C9.14251 27.6061 9.02299 27.6589 8.89669 27.6871C8.77038 27.7153 8.63975 27.7184 8.51227 27.6961C8.38478 27.6738 8.26294 27.6266 8.1537 27.5572C8.04445 27.4878 7.94995 27.3976 7.87559 27.2917L5.27999 23.6101C5.20561 23.5043 5.15282 23.3848 5.12462 23.2586C5.09643 23.1324 5.09339 23.0019 5.11568 22.8745C5.13797 22.7471 5.18515 22.6254 5.25453 22.5162C5.3239 22.4071 5.41411 22.3127 5.51999 22.2385L29.4324 5.35206C29.5985 5.23497 29.7968 5.17212 30 5.17212C30.2032 5.17212 30.4015 5.23497 30.5676 5.35206L54.4884 22.2385C54.5943 22.3127 54.6845 22.4071 54.7539 22.5162C54.8232 22.6254 54.8704 22.7471 54.8927 22.8745C54.915 23.0019 54.912 23.1324 54.8838 23.2586C54.8556 23.3848 54.8028 23.5043 54.7284 23.6101L52.1268 27.2953C52.0521 27.4012 51.9573 27.4914 51.8477 27.5607C51.7382 27.63 51.616 27.6769 51.4883 27.6989C51.3605 27.7208 51.2297 27.7174 51.1033 27.6887C50.9768 27.66 50.8573 27.6066 50.7516 27.5317Z" fill="#5F5F5F"/>
<path d="M23.0916 32.1144H36.9084C37.129 32.1144 37.3405 32.202 37.4964 32.358C37.6524 32.5139 37.74 32.7254 37.74 32.946V54.0816H22.26V32.946C22.26 32.7254 22.3476 32.5139 22.5036 32.358C22.6595 32.202 22.8711 32.1144 23.0916 32.1144Z" fill="#0086F4"/>
<rect x="22.26" y="32.1144" width="15.48" height="21.9672" fill="black" style="mix-blend-mode:saturation"/>
<path d="M23.0916 32.1144H29.1684C29.389 32.1144 29.6005 32.202 29.7564 32.358C29.9124 32.5139 30 32.7254 30 32.946V54.0816H22.26V32.946C22.26 32.7254 22.3476 32.5139 22.5036 32.358C22.6595 32.202 22.8711 32.1144 23.0916 32.1144Z" fill="#0099F5"/>
<rect x="22.26" y="32.1144" width="7.74" height="21.9672" fill="black" style="mix-blend-mode:saturation"/>
<path d="M40.908 52.3212H19.044C18.8478 52.3212 18.6888 52.4802 18.6888 52.6764V54.3264C18.6888 54.5225 18.8478 54.6816 19.044 54.6816H40.908C41.1042 54.6816 41.2632 54.5225 41.2632 54.3264V52.6764C41.2632 52.4802 41.1042 52.3212 40.908 52.3212Z" fill="#FFD44D"/>
<rect x="18.6888" y="52.3212" width="22.5744" height="2.3604" fill="black" style="mix-blend-mode:saturation"/>
</svg>
