<svg width="65" height="64" viewBox="0 0 65 64" fill="none" xmlns="http://www.w3.org/2000/svg">
<path d="M60.3551 44.9241L57.8305 47.6307L4.6449 47.8972V19.8094L7.1695 17.1028H60.3551V44.9241Z" fill="#04AF6D"/>
<path d="M57.8305 19.8094L60.3551 17.1028V44.9241L57.8305 47.6307V19.8094Z" fill="#07995D"/>
<path d="M57.8305 19.8093H4.6449V47.6306H57.8305V19.8093Z" fill="#00CA83"/>
<path d="M51.4527 43.9699H11.0227C11.0227 42.0966 9.50428 40.5782 7.63098 40.5782V26.8619C9.50428 26.8619 11.0227 25.3435 11.0227 23.4702H51.4527C51.4527 25.3435 52.9711 26.8619 54.8444 26.8619V40.5782C52.9711 40.5782 51.4527 42.0966 51.4527 43.9699Z" fill="#1BE79F"/>
<path d="M30.8113 41.743V40.3299C29.0407 40.1466 27.3741 39.4069 26.052 38.2148L27.4586 36.5326C28.5428 37.4751 29.6595 38.0367 30.8087 38.2161V34.4643C29.3488 34.112 28.2802 33.6531 27.6029 33.0902C26.9256 32.526 26.5863 31.6836 26.5863 30.5643C26.5863 29.4476 26.9763 28.5337 27.7576 27.8239C28.5389 27.1141 29.5555 26.7267 30.8087 26.663V25.6932H32.0463V26.6812C33.4945 26.7956 34.8868 27.2974 36.0737 28.1359L34.814 29.9169C33.9963 29.3241 33.046 28.938 32.0463 28.7937V32.4363H32.1048C33.5894 32.7886 34.6788 33.2592 35.3769 33.8494C36.0737 34.4396 36.4221 35.3002 36.4221 36.4338C36.4221 37.5674 36.0217 38.4826 35.2222 39.1924C34.4214 39.9022 33.3645 40.2896 32.0502 40.3546V41.7482L30.8126 41.7456L30.8113 41.743ZM29.4424 29.2474C29.1226 29.5165 28.9419 29.9143 28.9497 30.3316C28.9302 30.7125 29.0706 31.0843 29.3371 31.3573C29.5945 31.6082 30.0859 31.85 30.81 32.0827V28.7326C30.2302 28.7859 29.7739 28.9575 29.4437 29.2474H29.4424ZM33.5192 37.7364C34.1549 37.2099 34.2446 36.2674 33.7181 35.6317C33.6921 35.6005 33.6648 35.5693 33.6349 35.5394C33.3489 35.2755 32.8211 35.0259 32.0489 34.7945V38.2785C32.669 38.2135 33.1578 38.0328 33.5218 37.7364H33.5192Z" fill="white"/>
<rect x="4.6449" y="17.1028" width="55.7102" height="30.7944" fill="black" style="mix-blend-mode:saturation"/>
<path d="M61.1351 44.6029C56.6397 43.1027 53.4365 40.1816 53.4365 40.1816C53.4365 40.1816 50.232 43.1027 45.7379 44.6029C45.7379 44.6029 45.4675 54.0877 53.4365 57.0543C61.4055 54.0877 61.1351 44.6029 61.1351 44.6029Z" fill="#0099F5"/>
<path d="M53.7784 44.7122H53.0933C52.1391 44.7122 51.363 45.4883 51.363 46.4425V47.814C51.363 48.0129 51.5242 48.1741 51.7231 48.1741C51.922 48.1741 52.0832 48.0129 52.0832 47.814V46.4425C52.0832 45.8848 52.5369 45.4311 53.0946 45.4311H53.7797C54.3374 45.4311 54.7911 45.8848 54.7911 46.4425V47.8166H55.5113V46.4425C55.5113 45.4883 54.7352 44.7122 53.781 44.7122H53.7784Z" fill="#24285B"/>
<path d="M55.9871 47.6722H50.8833C50.6679 47.6722 50.4933 47.8469 50.4933 48.0622V52.1338C50.4933 52.3492 50.6679 52.5238 50.8833 52.5238H55.9871C56.2025 52.5238 56.3771 52.3492 56.3771 52.1338V48.0622C56.3771 47.8469 56.2025 47.6722 55.9871 47.6722Z" fill="#F9BB0D"/>
<path d="M55.2929 47.6722H50.8833C50.6679 47.6722 50.4933 47.8469 50.4933 48.0622V51.6034C50.4933 51.8188 50.6679 51.9934 50.8833 51.9934H55.2929C55.5083 51.9934 55.6829 51.8188 55.6829 51.6034V48.0622C55.6829 47.8469 55.5083 47.6722 55.2929 47.6722Z" fill="#FFD44D"/>
<path d="M54.1138 49.6795C54.1138 49.2921 53.8005 48.9788 53.4131 48.9788C53.0257 48.9788 52.7124 49.2921 52.7124 49.6795C52.7124 49.9213 52.8359 50.1345 53.0218 50.2606V50.6805C53.0218 50.908 53.2064 51.0939 53.4352 51.0939C53.664 51.0939 53.8486 50.9093 53.8486 50.6805V50.2281C54.0098 50.0994 54.1138 49.9018 54.1138 49.6795Z" fill="#24285B"/>
<path d="M61.1351 44.6029C56.6397 43.1027 53.4365 40.1816 53.4365 40.1816C53.4365 40.1816 53.0452 40.5391 52.3445 41.0669C53.6497 42.0497 56.0274 43.6266 58.9511 44.6029C58.9511 44.6029 59.1955 53.1985 52.3445 56.5837C52.6903 56.754 53.0543 56.9126 53.4365 57.0556C61.4055 54.089 61.1351 44.6042 61.1351 44.6042V44.6029Z" fill="#0086F4"/>
<rect x="45.7368" y="40.1816" width="15.3994" height="16.874" fill="black" style="mix-blend-mode:saturation"/>
</svg>
