<svg width="500" height="500" viewBox="0 0 500 500" fill="none" xmlns="http://www.w3.org/2000/svg">
<path d="M464.27 345.57L444.85 366.39L35.73 368.44V152.38L55.15 131.56H464.27V345.57Z" fill="#04AF6D"/>
<path d="M444.85 152.38L464.27 131.56V345.57L444.85 366.39V152.38Z" fill="#07995D"/>
<path d="M444.85 152.38H35.73V366.39H444.85V152.38Z" fill="#00CA83"/>
<path d="M395.79 338.23H84.79C84.79 323.82 73.11 312.14 58.7 312.14V206.63C73.11 206.63 84.79 194.95 84.79 180.54H395.79C395.79 194.95 407.47 206.63 421.88 206.63V312.14C407.47 312.14 395.79 323.82 395.79 338.23Z" fill="#1BE79F"/>
<path d="M237.01 321.1V310.23C223.39 308.82 210.57 303.13 200.4 293.96L211.22 281.02C219.56 288.27 228.15 292.59 236.99 293.97V265.11C225.76 262.4 217.54 258.87 212.33 254.54C207.12 250.2 204.51 243.72 204.51 235.11C204.51 226.52 207.51 219.49 213.52 214.03C219.53 208.57 227.35 205.59 236.99 205.1V197.64H246.51V205.24C257.65 206.12 268.36 209.98 277.49 216.43L267.8 230.13C261.51 225.57 254.2 222.6 246.51 221.49V249.51H246.96C258.38 252.22 266.76 255.84 272.13 260.38C277.49 264.92 280.17 271.54 280.17 280.26C280.17 288.98 277.09 296.02 270.94 301.48C264.78 306.94 256.65 309.92 246.54 310.42V321.14L237.02 321.12L237.01 321.1ZM226.48 224.98C224.02 227.05 222.63 230.11 222.69 233.32C222.54 236.25 223.62 239.11 225.67 241.21C227.65 243.14 231.43 245 237 246.79V221.02C232.54 221.43 229.03 222.75 226.49 224.98H226.48ZM257.84 290.28C262.73 286.23 263.42 278.98 259.37 274.09C259.17 273.85 258.96 273.61 258.73 273.38C256.53 271.35 252.47 269.43 246.53 267.65V294.45C251.3 293.95 255.06 292.56 257.86 290.28H257.84Z" fill="white"/>
<path d="M470.27 343.1C435.69 331.56 411.05 309.09 411.05 309.09C411.05 309.09 386.4 331.56 351.83 343.1C351.83 343.1 349.75 416.06 411.05 438.88C472.35 416.06 470.27 343.1 470.27 343.1Z" fill="#0099F5"/>
<path d="M413.68 343.94H408.41C401.07 343.94 395.1 349.91 395.1 357.25V367.8C395.1 369.33 396.34 370.57 397.87 370.57C399.4 370.57 400.64 369.33 400.64 367.8V357.25C400.64 352.96 404.13 349.47 408.42 349.47H413.69C417.98 349.47 421.47 352.96 421.47 357.25V367.82H427.01V357.25C427.01 349.91 421.04 343.94 413.7 343.94H413.68Z" fill="#24285B"/>
<path d="M430.67 366.71H391.41C389.753 366.71 388.41 368.053 388.41 369.71V401.03C388.41 402.687 389.753 404.03 391.41 404.03H430.67C432.327 404.03 433.67 402.687 433.67 401.03V369.71C433.67 368.053 432.327 366.71 430.67 366.71Z" fill="#F9BB0D"/>
<path d="M425.33 366.71H391.41C389.753 366.71 388.41 368.053 388.41 369.71V396.95C388.41 398.607 389.753 399.95 391.41 399.95H425.33C426.987 399.95 428.33 398.607 428.33 396.95V369.71C428.33 368.053 426.987 366.71 425.33 366.71Z" fill="#FFD44D"/>
<path d="M416.26 382.15C416.26 379.17 413.85 376.76 410.87 376.76C407.89 376.76 405.48 379.17 405.48 382.15C405.48 384.01 406.43 385.65 407.86 386.62V389.85C407.86 391.6 409.28 393.03 411.04 393.03C412.8 393.03 414.22 391.61 414.22 389.85V386.37C415.46 385.38 416.26 383.86 416.26 382.15Z" fill="#24285B"/>
<path d="M470.27 343.1C435.69 331.56 411.05 309.09 411.05 309.09C411.05 309.09 408.04 311.84 402.65 315.9C412.69 323.46 430.98 335.59 453.47 343.1C453.47 343.1 455.35 409.22 402.65 435.26C405.31 436.57 408.11 437.79 411.05 438.89C472.35 416.07 470.27 343.11 470.27 343.11V343.1Z" fill="#0086F4"/>
</svg>
