<svg width="500" height="500" viewBox="0 0 500 500" fill="none" xmlns="http://www.w3.org/2000/svg">
<path d="M460.6 325.37V179.72C460.6 171.513 453.947 164.86 445.74 164.86H298.47C290.263 164.86 283.61 171.513 283.61 179.72V325.37C283.61 333.577 290.263 340.23 298.47 340.23H445.74C453.947 340.23 460.6 333.577 460.6 325.37Z" fill="#0099F5"/>
<path d="M460.6 330.68V319.68H335.17C331.27 319.68 328.12 315.41 328.12 310.14V164.86H290.66C286.77 164.86 283.61 169.13 283.61 174.4V330.68C283.61 335.95 286.77 340.23 290.66 340.23H453.55C457.45 340.23 460.6 336 460.6 330.68Z" fill="#0099F5"/>
<path d="M460.6 195.36H283.61V222.56H460.6V195.36Z" fill="#24285B"/>
<path d="M272.43 43.19H75.59C58.1489 43.19 44.01 57.3288 44.01 74.77V424.61C44.01 442.051 58.1489 456.19 75.59 456.19H272.43C289.871 456.19 304.01 442.051 304.01 424.61V74.77C304.01 57.3288 289.871 43.19 272.43 43.19Z" fill="#24285B"/>
<path d="M258.43 61.23H90.16C72.7189 61.23 58.58 75.3689 58.58 92.81V408.68C58.58 426.121 72.7189 440.26 90.16 440.26H258.43C275.871 440.26 290.01 426.121 290.01 408.68V92.81C290.01 75.3689 275.871 61.23 258.43 61.23Z" fill="#E2E2E2"/>
<path d="M235.43 59.9H89.67C72.2288 59.9 58.09 74.0388 58.09 91.48V398.61C58.09 416.051 72.2288 430.19 89.67 430.19H235.43C252.871 430.19 267.01 416.051 267.01 398.61V91.48C267.01 74.0388 252.871 59.9 235.43 59.9Z" fill="#F2F2F2"/>
<path d="M107 53.19H240V60.8C240 67.7991 237.22 74.5115 232.271 79.4606C227.321 84.4096 220.609 87.19 213.61 87.19H133.4C129.934 87.1913 126.501 86.5097 123.298 85.1841C120.095 83.8584 117.185 81.9148 114.733 79.4641C112.281 77.0134 110.337 74.1038 109.01 70.9013C107.683 67.6989 107 64.2664 107 60.8V53.19Z" fill="#24285B"/>
<path d="M170.22 312.8V301.87C156.526 300.47 143.63 294.759 133.39 285.56L144.32 272.56C152.7 279.853 161.333 284.187 170.22 285.56V256.51C158.94 253.843 150.68 250.3 145.44 245.88C140.2 241.46 137.58 234.95 137.58 226.35C137.58 217.683 140.6 210.62 146.64 205.16C152.68 199.7 160.54 196.7 170.22 196.16V188.67H179.8V196.31C191.001 197.186 201.758 201.066 210.94 207.54L201.21 221.31C194.881 216.726 187.534 213.747 179.8 212.63V240.77H180.25C191.73 243.47 200.163 247.113 205.55 251.7C210.937 256.287 213.63 262.953 213.63 271.7C213.63 280.433 210.537 287.543 204.35 293.03C198.163 298.517 189.98 301.517 179.8 302.03V312.8H170.22ZM159.66 216.17C158.442 217.196 157.468 218.48 156.809 219.93C156.15 221.379 155.822 222.958 155.85 224.55C155.774 226.007 156.001 227.465 156.517 228.83C157.034 230.195 157.828 231.438 158.85 232.48C160.85 234.48 164.63 236.3 170.22 238.1V212.19C165.727 212.603 162.207 213.93 159.66 216.17ZM191.18 281.81C192.414 280.791 193.423 279.527 194.143 278.098C194.863 276.669 195.278 275.106 195.363 273.508C195.448 271.91 195.199 270.311 194.634 268.814C194.069 267.317 193.199 265.954 192.08 264.81C189.88 262.77 185.787 260.85 179.8 259.05V286C184.6 285.513 188.393 284.117 191.18 281.81Z" fill="#4BC487"/>
</svg>
