<svg id="Layer_1" data-name="Layer 1" xmlns="http://www.w3.org/2000/svg" viewBox="0 0 500 500" width="500" height="500" class="illustration"><defs>
<style>.cls-1{fill:#f0457d;}.cls-2
{fill:#db2868;}.cls-3{fill:#ffd44d;}.cls-4{fill:#24285b;}.cls-5{fill:#e2e2e2;}.cls-6{fill:#f2f2f2;}
.cls-7{fill:#4bc487;}</style></defs><title>Startups</title><rect class="cls-1" x="284.42" y="164.05" width="175.37" height="176.99" rx="14.86" transform="translate(624.65 -119.56) rotate(90)"></rect><path class="cls-2" d="M460.6,330.68v-11H335.17c-3.9,0-7.05-4.27-7.05-9.54V164.86H290.66c-3.89,0-7.05,4.27-7.05,9.54V330.68c0,5.27,3.16,9.55,7.05,9.55H453.55C457.45,340.23,460.6,336,460.6,330.68Z"></path><rect class="cls-3" x="283.61" y="195.36" width="176.99" height="27.2"></rect><rect class="cls-4" x="44.01" y="43.19" width="260" height="413" rx="31.58"></rect><rect class="cls-5" x="58.58" y="61.23" width="231.43" height="379.03" rx="31.58"></rect><rect class="cls-6" x="58.09" y="59.9" width="208.92" height="370.29" rx="31.58"></rect><path class="cls-4" d="M107,53.19H240a0,0,0,0,1,0,0V60.8a26.39,26.39,0,0,1-26.39,26.39H133.4A26.39,26.39,0,0,1,107,60.8V53.19A0,0,0,0,1,107,53.19Z"></path><path class="cls-7" d="M170.22,312.8V301.87a65,65,0,0,1-36.83-16.31l10.93-13q12.57,10.94,25.9,13V256.51q-16.92-4-24.78-10.63t-7.86-19.53q0-13,9.06-21.19t23.58-9v-7.49h9.58v7.64a62.5,62.5,0,0,1,31.14,11.23l-9.73,13.77a48.26,48.26,0,0,0-21.41-8.68v28.14h.45q17.22,4.05,25.3,10.93t8.08,20q0,13.1-9.28,21.33t-24.55,9V312.8Zm-10.56-96.63a10.71,10.71,0,0,0-3.81,8.38,10.54,10.54,0,0,0,3,7.93c2,2,5.78,3.82,11.37,5.62V212.19Q163.48,212.81,159.66,216.17Zm31.52,65.64a11.56,11.56,0,0,0,.9-17q-3.3-3.06-12.28-5.76V286Q187,285.27,191.18,281.81Z"></path></svg>