<svg width="65" height="65" viewBox="0 0 65 65" fill="none" xmlns="http://www.w3.org/2000/svg">
<path d="M54.6087 36.2859L26.7493 8.42651C25.6898 7.36698 23.972 7.36698 22.9124 8.42651L6.72371 24.6152C5.66417 25.6748 5.66417 27.3926 6.72371 28.4521L34.5831 56.3115C35.6426 57.371 37.3604 57.371 38.42 56.3115L54.6087 40.1228C55.6682 39.0632 55.6682 37.3454 54.6087 36.2859Z" fill="#636363"/>
<path d="M49.5354 31.2123L26.7483 8.42529C25.6888 7.36576 23.971 7.36576 22.9114 8.42529L8.91879 22.4179C7.85926 23.4775 7.85926 25.1953 8.91879 26.2548L31.7058 49.0419C32.7653 50.1014 34.4832 50.1014 35.5427 49.0419L49.5354 35.0492C50.5949 33.9897 50.5949 32.2718 49.5354 31.2123Z" fill="#5E5E5E"/>
<path d="M52.7005 42.0287L21.0042 10.3324L15.9144 15.4222L47.6107 47.1185L52.7005 42.0287Z" fill="#676767"/>
<path d="M56.4876 29.0485H17.0885C15.5901 29.0485 14.3754 30.2632 14.3754 31.7616V54.6559C14.3754 56.1543 15.5901 57.369 17.0885 57.369H56.4876C57.986 57.369 59.2007 56.1543 59.2007 54.6559V31.7616C59.2007 30.2632 57.986 29.0485 56.4876 29.0485Z" fill="#0086F4"/>
<rect x="14.3754" y="29.0485" width="44.8253" height="28.3205" fill="black" style="mix-blend-mode:saturation"/>
<path d="M49.3142 29.0485H17.0885C15.5901 29.0485 14.3754 30.2632 14.3754 31.7616V51.5502C14.3754 53.0486 15.5901 54.2633 17.0885 54.2633H49.3142C50.8126 54.2633 52.0273 53.0486 52.0273 51.5502V31.7616C52.0273 30.2632 50.8126 29.0485 49.3142 29.0485Z" fill="#0099F5"/>
<rect x="14.3754" y="29.0485" width="37.6519" height="25.2148" fill="black" style="mix-blend-mode:saturation"/>
<path d="M29.8259 47.8427H21.2121C20.7483 47.8427 20.3723 48.2186 20.3723 48.6825V48.6838C20.3723 49.1476 20.7483 49.5236 21.2121 49.5236H29.8259C30.2897 49.5236 30.6657 49.1476 30.6657 48.6838V48.6825C30.6657 48.2186 30.2897 47.8427 29.8259 47.8427Z" fill="white"/>
<rect x="20.3723" y="47.8427" width="10.2934" height="1.6809" fill="black" style="mix-blend-mode:saturation"/>
<path d="M39.5343 47.8427H34.0418C33.578 47.8427 33.202 48.2186 33.202 48.6825V48.6838C33.202 49.1476 33.578 49.5236 34.0418 49.5236H39.5343C39.9981 49.5236 40.3741 49.1476 40.3741 48.6838V48.6825C40.3741 48.2186 39.9981 47.8427 39.5343 47.8427Z" fill="white"/>
<rect x="33.202" y="47.8427" width="7.1721" height="1.6809" fill="black" style="mix-blend-mode:saturation"/>
<path d="M52.3653 47.8427H43.7515C43.2877 47.8427 42.9117 48.2186 42.9117 48.6825V48.6838C42.9117 49.1476 43.2877 49.5236 43.7515 49.5236H52.3653C52.8291 49.5236 53.2051 49.1476 53.2051 48.6838V48.6825C53.2051 48.2186 52.8291 47.8427 52.3653 47.8427Z" fill="white"/>
<rect x="42.9117" y="47.8427" width="10.2934" height="1.6809" fill="black" style="mix-blend-mode:saturation"/>
<path d="M27.1557 33.5361H21.7087C20.9706 33.5361 20.3723 34.1345 20.3723 34.8725V39.1534C20.3723 39.8915 20.9706 40.4898 21.7087 40.4898H27.1557C27.8938 40.4898 28.4921 39.8915 28.4921 39.1534V34.8725C28.4921 34.1345 27.8938 33.5361 27.1557 33.5361Z" fill="#FFD44D"/>
<rect x="20.3723" y="33.5361" width="8.1198" height="6.9537" fill="black" style="mix-blend-mode:saturation"/>
</svg>
