<svg width="34" height="36" viewBox="0 0 34 36" fill="none" xmlns="http://www.w3.org/2000/svg">
<path d="M17 0C7.61222 0 0 7.254 0 16.2C0 23.706 5.36444 30.006 12.6367 31.842L17 36L21.3633 31.842C28.6356 30.006 34 23.706 34 16.2C34 7.254 26.3878 0 17 0ZM17 3.6C20.1356 3.6 22.6667 6.012 22.6667 9C22.6667 11.988 20.1356 14.4 17 14.4C13.8644 14.4 11.3333 11.988 11.3333 9C11.3333 6.012 13.8644 3.6 17 3.6ZM17 29.34C12.2778 29.34 8.10333 27.036 5.66667 23.544C5.72333 19.962 13.2222 18 17 18C20.7589 18 28.2767 19.962 28.3333 23.544C25.8967 27.036 21.7222 29.34 17 29.34Z" fill="#757575"/>
</svg>
