<svg width="200" height="200" viewBox="0 0 200 200" fill="none" xmlns="http://www.w3.org/2000/svg">
<path d="M108.972 17.276H30.236C23.2595 17.276 17.604 22.9315 17.604 29.908V169.844C17.604 176.82 23.2595 182.476 30.236 182.476H108.972C115.948 182.476 121.604 176.82 121.604 169.844V29.908C121.604 22.9315 115.948 17.276 108.972 17.276Z" fill="#24285B"/>
<path d="M103.372 24.492H36.064C29.0875 24.492 23.432 30.1475 23.432 37.124V163.472C23.432 170.448 29.0875 176.104 36.064 176.104H103.372C110.348 176.104 116.004 170.448 116.004 163.472V37.124C116.004 30.1475 110.348 24.492 103.372 24.492Z" fill="#E2E2E2"/>
<path d="M94.172 23.96H35.868C28.8916 23.96 23.236 29.6156 23.236 36.592V159.444C23.236 166.42 28.8916 172.076 35.868 172.076H94.172C101.148 172.076 106.804 166.42 106.804 159.444V36.592C106.804 29.6156 101.148 23.96 94.172 23.96Z" fill="#F2F2F2"/>
<path d="M42.8 21.276H96V24.32C96 27.1196 94.8878 29.8046 92.9082 31.7842C90.9286 33.7639 88.2436 34.876 85.444 34.876H53.36C51.9734 34.8765 50.6003 34.6039 49.3192 34.0736C48.038 33.5434 46.8738 32.7659 45.8932 31.7856C44.9125 30.8054 44.1346 29.6415 43.6039 28.3605C43.0732 27.0796 42.8 25.7066 42.8 24.32V21.276Z" fill="#24285B"/>
<path d="M69 53C49.12 53 33 69.12 33 89C33 105.68 44.36 119.68 59.76 123.76L69 133L78.24 123.76C93.64 119.68 105 105.68 105 89C105 69.12 88.88 53 69 53ZM69 61C75.64 61 81 66.36 81 73C81 79.64 75.64 85 69 85C62.36 85 57 79.64 57 73C57 66.36 62.36 61 69 61ZM69 118.2C59 118.2 50.16 113.08 45 105.32C45.12 97.36 61 93 69 93C76.96 93 92.88 97.36 93 105.32C87.84 113.08 79 118.2 69 118.2Z" fill="#0099F5"/>
<path d="M92.108 109H90C87.064 109 84.676 111.388 84.676 114.324V118.544C84.676 119.156 85.172 119.652 85.784 119.652C86.396 119.652 86.892 119.156 86.892 118.544V114.324C86.892 112.608 88.288 111.212 90.004 111.212H92.112C93.828 111.212 95.224 112.608 95.224 114.324V118.552H97.44V114.324C97.44 111.388 95.052 109 92.116 109H92.108Z" fill="#24285B"/>
<path d="M98.904 118.108H83.2C82.5373 118.108 82 118.645 82 119.308V131.836C82 132.499 82.5373 133.036 83.2 133.036H98.904C99.5667 133.036 100.104 132.499 100.104 131.836V119.308C100.104 118.645 99.5667 118.108 98.904 118.108Z" fill="#F9BB0D"/>
<path d="M96.768 118.108H83.2C82.5373 118.108 82 118.645 82 119.308V130.204C82 130.867 82.5373 131.404 83.2 131.404H96.768C97.4307 131.404 97.968 130.867 97.968 130.204V119.308C97.968 118.645 97.4307 118.108 96.768 118.108Z" fill="#FFD44D"/>
<path d="M93.14 124.284C93.14 123.092 92.176 122.128 90.984 122.128C89.792 122.128 88.828 123.092 88.828 124.284C88.828 125.028 89.208 125.684 89.78 126.072V127.364C89.78 128.064 90.348 128.636 91.052 128.636C91.756 128.636 92.324 128.068 92.324 127.364V125.972C92.82 125.576 93.14 124.968 93.14 124.284Z" fill="#24285B"/>
</svg>
