<svg xmlns="http://www.w3.org/2000/svg" viewBox="0 0 100 100" width="500" height="500" class="illustration"><defs><style>.cls-1{fill:#f1f2f2;}.cls-1,.cls-2,.cls-3,.cls-7{stroke:#231f20;stroke-miterlimit:10;}.cls-1,.cls-2,.cls-3,.cls-6,.cls-7{stroke-width:1.5px;}.cls-2{fill:#bcbec0;}.cls-3,.cls-6{fill:none;}.cls-4{fill:#f1983c;}.cls-5{fill:#f8d366;}.cls-6{stroke:#221f20;stroke-linejoin:round;}.cls-7{fill:#0099f5;}</style></defs><g id="Layer_2" data-name="Layer 2"><path class="cls-1" d="M72.64,61.45a5.93,5.93,0,0,0-.84.06,5,5,0,0,0-1,.19,1.34,1.34,0,0,0-.27.07A4.24,4.24,0,0,0,70,62a6.6,6.6,0,0,0-1.37.71,1.94,1.94,0,0,0-.29.21l-.3.23a7.13,7.13,0,0,0-1.85,2.33,4,4,0,0,0-.2.42q-.12.29-.21.57a3.62,3.62,0,0,0-.13.47,1.53,1.53,0,0,0-.07.29,6.17,6.17,0,0,0-.1.62,4.4,4.4,0,0,0,0,.73.57.57,0,0,0,0,.13v1.15A7.21,7.21,0,0,1,58.24,77H44l-1-13.49-.15-2.08Z"></path><path class="cls-1" d="M14.54,21.08V16a1.93,1.93,0,0,1,3-1.58l.47.34a1.94,1.94,0,0,0,2.23,0l2.4-1.7a1.91,1.91,0,0,1,2.22,0l2.39,1.69a1.92,1.92,0,0,0,2.22,0l2.4-1.7a1.94,1.94,0,0,1,2.23,0l2.4,1.7a1.92,1.92,0,0,0,2.22,0l2.39-1.69a1.91,1.91,0,0,1,2.22,0l2.4,1.7a1.94,1.94,0,0,0,2.23,0h0a1.92,1.92,0,0,1,3,1.57V69.81A7.22,7.22,0,0,0,58.25,77H21.39a6.85,6.85,0,0,1-6.85-6.85V33.8"></path><path class="cls-2" d="M80.64,68.66v1.15l-5-2.59-3.8,2-3.8-2-2.55,1.31a6,6,0,0,1,0-.73,6.17,6.17,0,0,1,.1-.62,1.53,1.53,0,0,1,.07-.29,3.62,3.62,0,0,1,.13-.47q.09-.28.21-.57a4,4,0,0,1,.2-.42,7.13,7.13,0,0,1,1.85-2.33l.3-.23a2.64,2.64,0,0,1,.29-.21A6.6,6.6,0,0,1,70,62a4.24,4.24,0,0,1,.5-.18,1.34,1.34,0,0,1,.27-.07,4.87,4.87,0,0,1,1-.19,5.93,5.93,0,0,1,.84-.06h.79A7.21,7.21,0,0,1,80.64,68.66Z"></path><line class="cls-3" x1="20.88" y1="24.1" x2="32.98" y2="24.1"></line><line class="cls-3" x1="20.88" y1="33.8" x2="45.71" y2="33.8"></line><line class="cls-3" x1="27.87" y1="39.74" x2="45.71" y2="39.74"></line><line class="cls-3" x1="20.88" y1="45.69" x2="45.71" y2="45.69"></line><line class="cls-3" x1="27.87" y1="51.63" x2="45.71" y2="51.63"></line><line class="cls-3" x1="20.88" y1="57.58" x2="45.71" y2="57.58"></line><line class="cls-3" x1="27.87" y1="63.52" x2="45.71" y2="63.52"></line><circle class="cls-1" cx="22.98" cy="39.74" r="1.74"></circle><circle class="cls-1" cx="22.98" cy="51.63" r="1.74"></circle><circle class="cls-1" cx="22.98" cy="63.52" r="1.74"></circle><g id="Layer_1-2" data-name="Layer 1"><path class="cls-4" d="M85.39,79.77V73.4h-9a26.69,26.69,0,0,0-10,0h-9v6.7c0,4,6.29,7.16,14,7.16s14-3.21,14-7.16C85.42,80,85.4,79.88,85.39,79.77Z"></path><ellipse class="cls-5" cx="71.39" cy="73.4" rx="14.04" ry="7.17"></ellipse><path class="cls-4" d="M85.39,68V61.61h-9a26.69,26.69,0,0,0-10,0h-9V68.3c0,4,6.29,7.17,14,7.17s14-3.21,14-7.17C85.42,68.19,85.4,68.09,85.39,68Z"></path><ellipse class="cls-5" cx="71.39" cy="61.61" rx="14.04" ry="7.17"></ellipse><path class="cls-4" d="M85.39,56.79V50.43h-9a26.28,26.28,0,0,0-10,0h-9v6.69c0,4,6.29,7.17,14,7.17s14-3.21,14-7.17C85.42,57,85.4,56.91,85.39,56.79Z"></path><ellipse class="cls-5" cx="71.39" cy="50.43" rx="14.04" ry="7.17"></ellipse><ellipse class="cls-4" cx="71.39" cy="50.43" rx="7.87" ry="4.02"></ellipse></g><g id="Layer_2-2" data-name="Layer 2"><path class="cls-6" d="M64.93,86.46a25.58,25.58,0,0,0,6.46.8c7.75,0,14-3.21,14-7.16V73.4"></path><path class="cls-6" d="M57.34,73.4v6.7c0,1.86,1.4,3.55,3.68,4.83"></path><path class="cls-6" d="M84.73,71.17a4,4,0,0,1,.73,2.23c0,4-6.28,7.17-14,7.17s-14-3.21-14-7.17A4.24,4.24,0,0,1,58.13,71"></path><path class="cls-6" d="M57.34,61.61V68.3c0,4,6.29,7.17,14,7.17s14-3.21,14-7.17V61.61"></path><path class="cls-6" d="M84.73,59.38a4.06,4.06,0,0,1,.73,2.23c0,4-6.28,7.17-14,7.17s-14-3.21-14-7.17a4.24,4.24,0,0,1,.75-2.41"></path><path class="cls-6" d="M57.34,50.43v6.69c0,4,6.29,7.17,14,7.17s14-3.21,14-7.17V50.43"></path><ellipse class="cls-6" cx="71.39" cy="50.43" rx="14.04" ry="7.17"></ellipse><path class="cls-6" d="M74.13,54.19a14.18,14.18,0,0,1-2.76.26"></path><path class="cls-6" d="M71.39,46.41c4.36,0,7.87,1.81,7.87,4,0,1.11-.88,2.1-2.3,2.83"></path></g><line class="cls-7" x1="72.16" y1="28.34" x2="85.35" y2="28.34"></line><line class="cls-7" x1="78.75" y1="21.74" x2="78.75" y2="34.93"></line><line class="cls-7" x1="60.45" y1="34.93" x2="68.6" y2="34.93"></line><line class="cls-7" x1="64.53" y1="30.85" x2="64.53" y2="39.01"></line></g></svg>