<svg width="500" height="500" viewBox="0 0 500 500" fill="none" xmlns="http://www.w3.org/2000/svg">
<path d="M363.2 307.25C361.795 307.25 360.391 307.351 359 307.55C357.305 307.696 355.63 308.014 354 308.5C353.539 308.569 353.087 308.687 352.65 308.85C351.742 309.173 350.856 309.557 350 310C347.586 310.911 345.287 312.103 343.15 313.55C342.635 313.855 342.15 314.206 341.7 314.6L340.2 315.75C336.332 318.94 333.18 322.909 330.95 327.4C330.576 328.08 330.242 328.781 329.95 329.5C329.55 330.467 329.2 331.417 328.9 332.35C328.631 333.118 328.414 333.903 328.25 334.7C328.086 335.171 327.969 335.656 327.9 336.15C327.681 337.174 327.514 338.209 327.4 339.25C327.299 340.465 327.299 341.685 327.4 342.9C327.375 343.116 327.375 343.334 327.4 343.55V349.3C327.308 358.826 323.448 367.929 316.665 374.618C309.882 381.308 300.727 385.04 291.2 385H220L215 317.55L214.25 307.15L363.2 307.25Z" fill="#F1F2F2" stroke="#231F20" stroke-width="7.5" stroke-miterlimit="10"/>
<path d="M72.7 105.4V80C72.7235 78.2648 73.2145 76.568 74.1212 75.0884C75.0279 73.6088 76.3169 72.401 77.8523 71.5924C79.3878 70.7837 81.1128 70.4041 82.8459 70.4934C84.579 70.5827 86.2559 71.1378 87.7 72.1L90.05 73.8C91.6829 74.9468 93.6297 75.5622 95.625 75.5622C97.6204 75.5622 99.5672 74.9468 101.2 73.8L113.2 65.3C114.82 64.1435 116.76 63.5218 118.75 63.5218C120.74 63.5218 122.68 64.1435 124.3 65.3L136.25 73.75C137.872 74.8995 139.812 75.5169 141.8 75.5169C143.788 75.5169 145.728 74.8995 147.35 73.75L159.35 65.25C160.983 64.1032 162.93 63.4879 164.925 63.4879C166.92 63.4879 168.867 64.1032 170.5 65.25L182.5 73.75C184.122 74.8995 186.062 75.5169 188.05 75.5169C190.038 75.5169 191.978 74.8995 193.6 73.75L205.55 65.3C207.17 64.1435 209.11 63.5218 211.1 63.5218C213.09 63.5218 215.03 64.1435 216.65 65.3L228.65 73.8C230.283 74.9468 232.23 75.5622 234.225 75.5622C236.22 75.5622 238.167 74.9468 239.8 73.8C241.237 72.8224 242.912 72.2531 244.647 72.1529C246.382 72.0528 248.112 72.4255 249.652 73.2313C251.191 74.0372 252.484 75.2459 253.39 76.7285C254.297 78.2112 254.784 79.9122 254.8 81.65V349.05C254.82 353.808 255.779 358.515 257.624 362.9C259.469 367.286 262.163 371.263 265.55 374.604C268.937 377.945 272.952 380.583 277.362 382.367C281.773 384.151 286.493 385.046 291.25 385H106.95C97.8663 385 89.1547 381.392 82.7316 374.968C76.3085 368.545 72.7 359.834 72.7 350.75V169" fill="#F1F2F2"/>
<path d="M72.7 105.4V80C72.7235 78.2648 73.2145 76.568 74.1212 75.0884C75.0279 73.6088 76.3169 72.401 77.8523 71.5924C79.3878 70.7837 81.1128 70.4041 82.8459 70.4934C84.579 70.5827 86.2559 71.1378 87.7 72.1L90.05 73.8C91.6829 74.9468 93.6297 75.5622 95.625 75.5622C97.6204 75.5622 99.5672 74.9468 101.2 73.8L113.2 65.3C114.82 64.1435 116.76 63.5218 118.75 63.5218C120.74 63.5218 122.68 64.1435 124.3 65.3L136.25 73.75C137.872 74.8995 139.812 75.5169 141.8 75.5169C143.788 75.5169 145.728 74.8995 147.35 73.75L159.35 65.25C160.983 64.1032 162.93 63.4879 164.925 63.4879C166.92 63.4879 168.867 64.1032 170.5 65.25L182.5 73.75C184.122 74.8995 186.062 75.5169 188.05 75.5169C190.038 75.5169 191.978 74.8995 193.6 73.75L205.55 65.3C207.17 64.1435 209.11 63.5218 211.1 63.5218C213.09 63.5218 215.03 64.1435 216.65 65.3L228.65 73.8C230.283 74.9468 232.23 75.5622 234.225 75.5622C236.22 75.5622 238.167 74.9468 239.8 73.8C241.237 72.8224 242.912 72.2531 244.647 72.1529C246.382 72.0528 248.112 72.4255 249.652 73.2313C251.191 74.0372 252.484 75.2459 253.39 76.7285C254.297 78.2112 254.784 79.9122 254.8 81.65V349.05C254.82 353.808 255.779 358.515 257.624 362.9C259.469 367.286 262.163 371.263 265.55 374.604C268.937 377.945 272.952 380.583 277.362 382.367C281.773 384.151 286.493 385.046 291.25 385H106.95C97.8663 385 89.1547 381.392 82.7316 374.968C76.3085 368.545 72.7 359.834 72.7 350.75V169" stroke="#24285B" stroke-width="4" stroke-miterlimit="10"/>
<path d="M403.2 343.3V349.05L378.2 336.1L359.2 346.1L340.2 336.1L327.45 342.65C327.376 341.434 327.376 340.216 327.45 339C327.564 337.959 327.731 336.924 327.95 335.9C328.019 335.406 328.136 334.921 328.3 334.45C328.464 333.653 328.681 332.868 328.95 332.1C329.25 331.167 329.6 330.217 330 329.25C330.292 328.531 330.626 327.83 331 327.15C333.23 322.659 336.382 318.69 340.25 315.5L341.75 314.35C342.209 313.968 342.693 313.617 343.2 313.3C345.333 311.943 347.614 310.836 350 310C350.814 309.648 351.649 309.347 352.5 309.1C352.937 308.937 353.389 308.819 353.85 308.75C355.479 308.259 357.155 307.941 358.85 307.8C360.241 307.601 361.645 307.5 363.05 307.5H367C376.544 307.46 385.714 311.206 392.5 317.917C399.286 324.628 403.134 333.756 403.2 343.3Z" fill="#BCBEC0" stroke="#231F20" stroke-width="7.5" stroke-miterlimit="10"/>
<path d="M104.4 120.5H164.9" stroke="#F1983C" stroke-width="7.5" stroke-miterlimit="10"/>
<path d="M104.4 169H228.55" stroke="#F1983C" stroke-width="7.5" stroke-miterlimit="10"/>
<path d="M139.35 198.7H228.55" stroke="#F1983C" stroke-width="7.5" stroke-miterlimit="10"/>
<path d="M104.4 228.45H228.55" stroke="#F1983C" stroke-width="7.5" stroke-miterlimit="10"/>
<path d="M139.35 258.15H228.55" stroke="#F1983C" stroke-width="7.5" stroke-miterlimit="10"/>
<path d="M104.4 287.9H228.55" stroke="#F1983C" stroke-width="7.5" stroke-miterlimit="10"/>
<path d="M139.35 317.6H228.55" stroke="#F1983C" stroke-width="7.5" stroke-miterlimit="10"/>
<path d="M114.9 207.4C119.705 207.4 123.6 203.505 123.6 198.7C123.6 193.895 119.705 190 114.9 190C110.095 190 106.2 193.895 106.2 198.7C106.2 203.505 110.095 207.4 114.9 207.4Z" fill="#F1F2F2" stroke="#F1983C" stroke-width="7.5" stroke-miterlimit="10"/>
<path d="M114.9 266.85C119.705 266.85 123.6 262.955 123.6 258.15C123.6 253.345 119.705 249.45 114.9 249.45C110.095 249.45 106.2 253.345 106.2 258.15C106.2 262.955 110.095 266.85 114.9 266.85Z" fill="#F1F2F2" stroke="#F1983C" stroke-width="7.5" stroke-miterlimit="10"/>
<path d="M114.9 326.3C119.705 326.3 123.6 322.405 123.6 317.6C123.6 312.795 119.705 308.9 114.9 308.9C110.095 308.9 106.2 312.795 106.2 317.6C106.2 322.405 110.095 326.3 114.9 326.3Z" fill="#F1F2F2" stroke="#F1983C" stroke-width="7.5" stroke-miterlimit="10"/>
<path d="M426.95 398.85V367H381.95C365.432 363.85 348.468 363.85 331.95 367H286.95V400.5C286.95 420.5 318.4 436.3 356.95 436.3C395.5 436.3 426.95 420.25 426.95 400.5C427.1 400 427 399.4 426.95 398.85Z" fill="#F1983C"/>
<path d="M356.95 402.85C395.72 402.85 427.15 386.799 427.15 367C427.15 347.201 395.72 331.15 356.95 331.15C318.18 331.15 286.75 347.201 286.75 367C286.75 386.799 318.18 402.85 356.95 402.85Z" fill="#F8D366"/>
<path d="M426.95 340V308.05H381.95C365.432 304.9 348.468 304.9 331.95 308.05H286.95V341.5C286.95 361.5 318.4 377.35 356.95 377.35C395.5 377.35 426.95 361.3 426.95 341.5C427.1 340.95 427 340.45 426.95 340Z" fill="#F1983C"/>
<path d="M356.95 343.9C395.72 343.9 427.15 327.849 427.15 308.05C427.15 288.251 395.72 272.2 356.95 272.2C318.18 272.2 286.75 288.251 286.75 308.05C286.75 327.849 318.18 343.9 356.95 343.9Z" fill="#F8D366"/>
<path d="M426.95 283.95V252.15H381.95C365.437 248.95 348.463 248.95 331.95 252.15H286.95V285.6C286.95 305.6 318.4 321.45 356.95 321.45C395.5 321.45 426.95 305.4 426.95 285.6C427.1 285 427 284.55 426.95 283.95Z" fill="#F1983C"/>
<path d="M356.95 288C395.72 288 427.15 271.949 427.15 252.15C427.15 232.351 395.72 216.3 356.95 216.3C318.18 216.3 286.75 232.351 286.75 252.15C286.75 271.949 318.18 288 356.95 288Z" fill="#F8D366"/>
<path d="M356.95 272.25C378.682 272.25 396.3 263.251 396.3 252.15C396.3 241.049 378.682 232.05 356.95 232.05C335.218 232.05 317.6 241.049 317.6 252.15C317.6 263.251 335.218 272.25 356.95 272.25Z" fill="#F1983C"/>
<path d="M324.65 432.3C335.202 435.003 346.057 436.348 356.95 436.3C395.7 436.3 426.95 420.25 426.95 400.5V367" stroke="#24285B" stroke-width="4" stroke-linejoin="round"/>
<path d="M286.7 367V400.5C286.7 409.8 293.7 418.25 305.1 424.65" stroke="#24285B" stroke-width="4" stroke-linejoin="round"/>
<path d="M423.65 355.85C425.954 359.118 427.225 363.002 427.3 367C427.3 387 395.9 402.85 357.3 402.85C318.7 402.85 287.3 386.8 287.3 367C287.19 362.755 288.357 358.574 290.65 355" stroke="#24285B" stroke-width="4" stroke-linejoin="round"/>
<path d="M286.7 308.05V341.5C286.7 361.5 318.15 377.35 356.7 377.35C395.25 377.35 426.7 361.3 426.7 341.5V308.05" stroke="#24285B" stroke-width="4" stroke-linejoin="round"/>
<path d="M423.65 296.9C425.938 300.176 427.207 304.055 427.3 308.05C427.3 328.05 395.9 343.9 357.3 343.9C318.7 343.9 287.3 327.85 287.3 308.05C287.298 303.746 288.606 299.543 291.05 296" stroke="#24285B" stroke-width="4" stroke-linejoin="round"/>
<path d="M286.7 252.15V285.6C286.7 305.6 318.15 321.45 356.7 321.45C395.25 321.45 426.7 305.4 426.7 285.6V252.15" stroke="#24285B" stroke-width="4" stroke-linejoin="round"/>
<path d="M356.95 288C395.72 288 427.15 271.949 427.15 252.15C427.15 232.351 395.72 216.3 356.95 216.3C318.18 216.3 286.75 232.351 286.75 252.15C286.75 271.949 318.18 288 356.95 288Z" stroke="#24285B" stroke-width="4" stroke-linejoin="round"/>
<path d="M370.65 270.95C366.103 271.833 361.481 272.268 356.85 272.25" stroke="#24285B" stroke-width="4" stroke-linejoin="round"/>
<path d="M356.95 232.05C378.75 232.05 396.3 241.1 396.3 252.05C396.3 257.6 391.9 262.55 384.8 266.2" stroke="#24285B" stroke-width="4" stroke-linejoin="round"/>
<path d="M360.8 141.7H426.75" stroke="#FFD44D" stroke-width="7.5" stroke-miterlimit="10"/>
<path d="M393.75 108.7V174.65" stroke="#FFD44D" stroke-width="7.5" stroke-miterlimit="10"/>
<path d="M302.25 174.65H343" stroke="#FFD44D" stroke-width="7.5" stroke-miterlimit="10"/>
<path d="M322.65 154.25V195.05" stroke="#FFD44D" stroke-width="7.5" stroke-miterlimit="10"/>
</svg>
