<svg width="600" height="600" viewBox="0 0 600 600" fill="none" xmlns="http://www.w3.org/2000/svg">
<g clip-path="url(#clip0_2_128)">
<path d="M442.76 305.32C447.233 310.179 449.592 316.615 449.319 323.213C449.046 329.812 446.163 336.031 441.304 340.504L317.54 454.43L283.813 417.79L407.576 303.864C412.435 299.391 418.872 297.032 425.47 297.305C432.068 297.578 438.288 300.461 442.76 305.32Z" fill="#F2948B"/>
<path d="M500.361 313.918C504.834 318.777 507.193 325.213 506.92 331.811C506.647 338.41 503.764 344.629 498.905 349.102L375.132 463.036L341.405 426.396L465.177 312.462C470.036 307.989 476.472 305.63 483.071 305.903C489.669 306.176 495.888 309.059 500.361 313.918Z" fill="#F9A498"/>
<path d="M558.816 331.993C553.977 327.249 547.51 324.531 540.736 324.391C533.961 324.251 527.388 326.7 522.357 331.239L436.423 410.355L378.21 412.154C380.375 407.502 381.495 402.433 381.492 397.303C381.492 387.956 377.779 378.991 371.169 372.382C364.56 365.772 355.595 362.059 346.248 362.059H199.574C187.648 362.054 175.91 365.029 165.425 370.713C154.941 376.396 146.043 384.609 139.538 394.605L109.302 441.163L51.745 516.852C51.3903 517.317 51.1531 517.862 51.0533 518.439C50.9536 519.016 50.9942 519.608 51.1718 520.166C51.3494 520.724 51.6588 521.231 52.0738 521.644C52.4887 522.057 52.9971 522.364 53.5558 522.539L205.164 570.106C205.846 570.321 206.576 570.33 207.263 570.134C207.95 569.937 208.564 569.543 209.029 569L262.502 506.254L395.808 488.025C419.375 484.788 441.389 474.419 458.894 458.311L558.099 366.981C560.525 364.78 562.477 362.107 563.835 359.126C565.193 356.144 565.928 352.917 565.995 349.641C566.062 346.366 565.46 343.111 564.226 340.077C562.991 337.042 561.15 334.291 558.816 331.993Z" fill="#FFBEB3"/>
<path d="M202.816 421.405H353.02C357.041 421.412 361.011 420.505 364.631 418.753C368.25 417 371.424 414.448 373.912 411.289L374.092 411.049L379.78 410.869C379.78 410.869 371.764 426.349 366.1 428.869C360.436 431.389 216.22 431.353 216.22 431.353L202.816 421.405Z" fill="#F9A498"/>
<path d="M291.708 305.228L283.94 313.556L120.292 314.376V227.952L128.06 219.624H291.708V305.228Z" fill="#04AF6D"/>
<path d="M283.94 227.952L291.708 219.624V305.228L283.94 313.556V227.952Z" fill="#07995D"/>
<path d="M283.94 227.952H120.292V313.556H283.94V227.952Z" fill="#00CA83"/>
<path d="M264.316 302.292H139.916C139.916 296.528 135.244 291.856 129.48 291.856V249.652C135.244 249.652 139.916 244.98 139.916 239.216H264.316C264.316 244.98 268.988 249.652 274.752 249.652V291.856C268.988 291.856 264.316 296.528 264.316 302.292Z" fill="#1BE79F"/>
<path d="M200.804 295.44V291.092C195.356 290.528 190.228 288.252 186.16 284.584L190.488 279.408C193.824 282.308 197.26 284.036 200.796 284.588V273.044C196.304 271.96 193.016 270.548 190.932 268.816C188.848 267.08 187.804 264.488 187.804 261.044C187.804 257.608 189.004 254.796 191.408 252.612C193.812 250.428 196.94 249.236 200.796 249.04V246.056H204.604V249.096C209.06 249.448 213.344 250.992 216.996 253.572L213.12 259.052C210.604 257.228 207.68 256.04 204.604 255.596V266.804H204.784C209.352 267.888 212.704 269.336 214.852 271.152C216.996 272.968 218.068 275.616 218.068 279.104C218.068 282.592 216.836 285.408 214.376 287.592C211.912 289.776 208.66 290.968 204.616 291.168V295.456L200.808 295.448L200.804 295.44ZM196.592 256.992C195.608 257.82 195.052 259.044 195.076 260.328C195.016 261.5 195.448 262.644 196.268 263.484C197.06 264.256 198.572 265 200.8 265.716V255.408C199.016 255.572 197.612 256.1 196.596 256.992H196.592ZM209.136 283.112C211.092 281.492 211.368 278.592 209.748 276.636C209.668 276.54 209.584 276.444 209.492 276.352C208.612 275.54 206.988 274.772 204.612 274.06V284.78C206.52 284.58 208.024 284.024 209.144 283.112H209.136Z" fill="white"/>
<path d="M294.108 304.24C280.276 299.624 270.42 290.636 270.42 290.636C270.42 290.636 260.56 299.624 246.732 304.24C246.732 304.24 245.9 333.424 270.42 342.552C294.94 333.424 294.108 304.24 294.108 304.24Z" fill="#0099F5"/>
<path d="M271.472 304.576H269.364C266.428 304.576 264.04 306.964 264.04 309.9V314.12C264.04 314.732 264.536 315.228 265.148 315.228C265.76 315.228 266.256 314.732 266.256 314.12V309.9C266.256 308.184 267.652 306.788 269.368 306.788H271.476C273.192 306.788 274.588 308.184 274.588 309.9V314.128H276.804V309.9C276.804 306.964 274.416 304.576 271.48 304.576H271.472Z" fill="#24285B"/>
<path d="M278.268 313.684H262.564C261.901 313.684 261.364 314.221 261.364 314.884V327.412C261.364 328.075 261.901 328.612 262.564 328.612H278.268C278.931 328.612 279.468 328.075 279.468 327.412V314.884C279.468 314.221 278.931 313.684 278.268 313.684Z" fill="#F9BB0D"/>
<path d="M276.132 313.684H262.564C261.901 313.684 261.364 314.221 261.364 314.884V325.78C261.364 326.443 261.901 326.98 262.564 326.98H276.132C276.795 326.98 277.332 326.443 277.332 325.78V314.884C277.332 314.221 276.795 313.684 276.132 313.684Z" fill="#FFD44D"/>
<path d="M272.504 319.86C272.504 318.668 271.54 317.704 270.348 317.704C269.156 317.704 268.192 318.668 268.192 319.86C268.192 320.604 268.572 321.26 269.144 321.648V322.94C269.144 323.64 269.712 324.212 270.416 324.212C271.12 324.212 271.688 323.644 271.688 322.94V321.548C272.184 321.152 272.504 320.544 272.504 319.86Z" fill="#24285B"/>
<path d="M294.108 304.24C280.276 299.624 270.42 290.636 270.42 290.636C270.42 290.636 269.216 291.736 267.06 293.36C271.076 296.384 278.392 301.236 287.388 304.24C287.388 304.24 288.14 330.688 267.06 341.104C268.124 341.628 269.244 342.116 270.42 342.556C294.94 333.428 294.108 304.244 294.108 304.244V304.24Z" fill="#0086F4"/>
<path d="M335.24 118.148V59.888C335.24 56.6052 332.579 53.944 329.296 53.944L270.388 53.944C267.105 53.944 264.444 56.6052 264.444 59.888V118.148C264.444 121.431 267.105 124.092 270.388 124.092H329.296C332.579 124.092 335.24 121.431 335.24 118.148Z" fill="#0099F5"/>
<path d="M335.24 120.272V115.872H285.068C283.508 115.872 282.248 114.164 282.248 112.056V53.944H267.264C265.708 53.944 264.444 55.652 264.444 57.76V120.272C264.444 122.38 265.708 124.092 267.264 124.092H332.42C333.98 124.092 335.24 122.4 335.24 120.272Z" fill="#0099F5"/>
<path d="M335.24 66.144H264.444V77.024H335.24V66.144Z" fill="#24285B"/>
<path d="M259.972 5.276H181.236C174.26 5.276 168.604 10.9315 168.604 17.908V157.844C168.604 164.82 174.26 170.476 181.236 170.476H259.972C266.948 170.476 272.604 164.82 272.604 157.844V17.908C272.604 10.9315 266.948 5.276 259.972 5.276Z" fill="#24285B"/>
<path d="M254.372 12.492H187.064C180.088 12.492 174.432 18.1475 174.432 25.124V151.472C174.432 158.448 180.088 164.104 187.064 164.104H254.372C261.348 164.104 267.004 158.448 267.004 151.472V25.124C267.004 18.1475 261.348 12.492 254.372 12.492Z" fill="#E2E2E2"/>
<path d="M245.172 11.96H186.868C179.892 11.96 174.236 17.6156 174.236 24.592V147.444C174.236 154.42 179.892 160.076 186.868 160.076H245.172C252.148 160.076 257.804 154.42 257.804 147.444V24.592C257.804 17.6156 252.148 11.96 245.172 11.96Z" fill="#F2F2F2"/>
<path d="M193.8 9.276H247V12.32C247 15.1196 245.888 17.8046 243.908 19.7842C241.929 21.7639 239.244 22.876 236.444 22.876H204.36C202.973 22.8765 201.6 22.6039 200.319 22.0736C199.038 21.5434 197.874 20.7659 196.893 19.7856C195.913 18.8054 195.135 17.6415 194.604 16.3605C194.073 15.0796 193.8 13.7066 193.8 12.32V9.276Z" fill="#24285B"/>
<path d="M219.088 113.12V108.748C213.61 108.188 208.452 105.904 204.356 102.224L208.728 97.024C212.08 99.9414 215.533 101.675 219.088 102.224V90.604C214.576 89.5374 211.272 88.12 209.176 86.352C207.08 84.584 206.032 81.98 206.032 78.54C206.032 75.0734 207.24 72.248 209.656 70.064C212.072 67.88 215.216 66.68 219.088 66.464V63.468H222.92V66.524C227.4 66.8746 231.703 68.4264 235.376 71.016L231.484 76.524C228.953 74.6904 226.014 73.4989 222.92 73.052V84.308H223.1C227.692 85.388 231.065 86.8454 233.22 88.68C235.375 90.5147 236.452 93.1814 236.452 96.68C236.452 100.173 235.215 103.017 232.74 105.212C230.265 107.407 226.992 108.607 222.92 108.812V113.12H219.088ZM214.864 74.468C214.377 74.8783 213.987 75.3921 213.723 75.9719C213.46 76.5518 213.329 77.1831 213.34 77.82C213.31 78.403 213.4 78.986 213.607 79.532C213.814 80.078 214.131 80.5752 214.54 80.992C215.34 81.792 216.852 82.52 219.088 83.24V72.876C217.291 73.0414 215.883 73.572 214.864 74.468ZM227.472 100.724C227.966 100.316 228.369 99.8108 228.657 99.2392C228.945 98.6675 229.111 98.0423 229.145 97.4031C229.179 96.7639 229.08 96.1246 228.854 95.5257C228.628 94.9268 228.28 94.3814 227.832 93.924C226.952 93.108 225.315 92.34 222.92 91.62V102.4C224.84 102.205 226.357 101.647 227.472 100.724Z" fill="#4BC487"/>
<path d="M295.88 44.6357C299.372 44.6357 302.203 41.8046 302.203 38.3123C302.203 34.82 299.372 31.9889 295.88 31.9889C292.388 31.9889 289.556 34.82 289.556 38.3123C289.556 41.8046 292.388 44.6357 295.88 44.6357Z" fill="white"/>
<path d="M295.879 46.793C300.555 46.793 304.358 42.9896 304.358 38.3139C304.358 33.6382 300.555 29.8348 295.879 29.8348C291.203 29.8348 287.4 33.6382 287.4 38.3139C287.4 42.9896 291.204 46.793 295.879 46.793ZM295.879 34.1462C298.177 34.1462 300.047 36.016 300.047 38.3139C300.047 40.6118 298.177 42.4816 295.879 42.4816C293.581 42.4816 291.711 40.6118 291.711 38.3139C291.711 36.016 293.581 34.1462 295.879 34.1462Z" fill="white"/>
<path d="M324.023 10.57C316.695 3.13793 306.916 -1.04218 296.486 -1.19974C296.475 -1.20001 296.464 -1.20001 296.453 -1.20001C295.278 -1.20001 294.316 -0.256221 294.299 0.923115C294.281 2.11374 295.231 3.0933 296.421 3.11104C315.537 3.39983 331.089 19.1913 331.089 38.3139C331.089 39.5048 332.053 40.4696 333.244 40.4696C334.435 40.4696 335.4 39.5048 335.4 38.3139C335.4 27.8634 331.36 18.0106 324.023 10.57Z" fill="white"/>
<path d="M316.143 38.3139C316.143 39.5048 317.107 40.4696 318.298 40.4696C319.489 40.4696 320.454 39.5048 320.454 38.3139C320.454 31.8601 317.97 25.7639 313.461 21.1487C308.961 16.5424 302.94 13.9165 296.509 13.7538C295.317 13.7331 294.329 14.6643 294.299 15.8546C294.269 17.045 295.209 18.034 296.4 18.0643C307.47 18.3437 316.143 27.2382 316.143 38.3139Z" fill="white"/>
<path d="M422.28 234.9C421.718 234.9 421.156 234.94 420.6 235.02C419.922 235.078 419.252 235.206 418.6 235.4C418.416 235.428 418.235 235.475 418.06 235.54C417.697 235.669 417.342 235.823 417 236C416.034 236.365 415.115 236.841 414.26 237.42C414.054 237.542 413.86 237.682 413.68 237.84L413.08 238.3C411.533 239.576 410.272 241.164 409.38 242.96C409.23 243.232 409.097 243.512 408.98 243.8C408.82 244.187 408.68 244.567 408.56 244.94C408.452 245.247 408.365 245.561 408.3 245.88C408.235 246.068 408.188 246.263 408.16 246.46C408.072 246.87 408.006 247.284 407.96 247.7C407.92 248.186 407.92 248.674 407.96 249.16C407.95 249.246 407.95 249.334 407.96 249.42V251.72C407.923 255.531 406.379 259.171 403.666 261.847C400.953 264.523 397.291 266.016 393.48 266H365L363 239.02L362.7 234.86L422.28 234.9Z" fill="#F1F2F2" stroke="#231F20" stroke-width="7.5" stroke-miterlimit="10"/>
<path d="M306.08 154.16V144C306.089 143.306 306.286 142.627 306.648 142.035C307.011 141.444 307.527 140.96 308.141 140.637C308.755 140.313 309.445 140.162 310.138 140.197C310.832 140.233 311.502 140.455 312.08 140.84L313.02 141.52C313.673 141.979 314.452 142.225 315.25 142.225C316.048 142.225 316.827 141.979 317.48 141.52L322.28 138.12C322.928 137.657 323.704 137.409 324.5 137.409C325.296 137.409 326.072 137.657 326.72 138.12L331.5 141.5C332.149 141.96 332.925 142.207 333.72 142.207C334.515 142.207 335.291 141.96 335.94 141.5L340.74 138.1C341.393 137.641 342.172 137.395 342.97 137.395C343.768 137.395 344.547 137.641 345.2 138.1L350 141.5C350.649 141.96 351.425 142.207 352.22 142.207C353.015 142.207 353.791 141.96 354.44 141.5L359.22 138.12C359.868 137.657 360.644 137.409 361.44 137.409C362.236 137.409 363.012 137.657 363.66 138.12L368.46 141.52C369.113 141.979 369.892 142.225 370.69 142.225C371.488 142.225 372.267 141.979 372.92 141.52C373.495 141.129 374.165 140.901 374.859 140.861C375.553 140.821 376.245 140.97 376.861 141.293C377.477 141.615 377.993 142.098 378.356 142.691C378.719 143.284 378.914 143.965 378.92 144.66V251.62C378.928 253.523 379.312 255.406 380.05 257.16C380.788 258.914 381.865 260.505 383.22 261.842C384.575 263.178 386.181 264.233 387.945 264.947C389.709 265.661 391.597 266.018 393.5 266H319.78C316.147 266 312.662 264.557 310.093 261.987C307.523 259.418 306.08 255.933 306.08 252.3V179.6" fill="#F1F2F2"/>
<path d="M306.08 154.16V144C306.089 143.306 306.286 142.627 306.648 142.035C307.011 141.444 307.527 140.96 308.141 140.637C308.755 140.313 309.445 140.162 310.138 140.197C310.832 140.233 311.502 140.455 312.08 140.84L313.02 141.52C313.673 141.979 314.452 142.225 315.25 142.225C316.048 142.225 316.827 141.979 317.48 141.52L322.28 138.12C322.928 137.657 323.704 137.409 324.5 137.409C325.296 137.409 326.072 137.657 326.72 138.12L331.5 141.5C332.149 141.96 332.925 142.207 333.72 142.207C334.515 142.207 335.291 141.96 335.94 141.5L340.74 138.1C341.393 137.641 342.172 137.395 342.97 137.395C343.768 137.395 344.547 137.641 345.2 138.1L350 141.5C350.649 141.96 351.425 142.207 352.22 142.207C353.015 142.207 353.791 141.96 354.44 141.5L359.22 138.12C359.868 137.657 360.644 137.409 361.44 137.409C362.236 137.409 363.012 137.657 363.66 138.12L368.46 141.52C369.113 141.979 369.892 142.225 370.69 142.225C371.488 142.225 372.267 141.979 372.92 141.52C373.495 141.129 374.165 140.901 374.859 140.861C375.553 140.821 376.245 140.97 376.861 141.293C377.477 141.615 377.993 142.098 378.356 142.691C378.719 143.284 378.914 143.965 378.92 144.66V251.62C378.928 253.523 379.312 255.406 380.05 257.16C380.788 258.914 381.865 260.505 383.22 261.842C384.575 263.178 386.181 264.233 387.945 264.947C389.709 265.661 391.597 266.018 393.5 266H319.78C316.147 266 312.662 264.557 310.093 261.987C307.523 259.418 306.08 255.933 306.08 252.3V179.6" stroke="#131636" stroke-width="4" stroke-miterlimit="10"/>
<path d="M438.28 249.32V251.62L428.28 246.44L420.68 250.44L413.08 246.44L407.98 249.06C407.95 248.574 407.95 248.086 407.98 247.6C408.026 247.184 408.092 246.77 408.18 246.36C408.208 246.163 408.255 245.968 408.32 245.78C408.385 245.461 408.472 245.147 408.58 244.84C408.7 244.467 408.84 244.087 409 243.7C409.117 243.412 409.25 243.132 409.4 242.86C410.292 241.064 411.553 239.476 413.1 238.2L413.7 237.74C413.884 237.587 414.077 237.447 414.28 237.32C415.133 236.777 416.046 236.334 417 236C417.325 235.859 417.659 235.739 418 235.64C418.175 235.575 418.356 235.528 418.54 235.5C419.192 235.304 419.862 235.176 420.54 235.12C421.096 235.04 421.658 235 422.22 235H423.8C427.618 234.984 431.286 236.483 434 239.167C436.714 241.851 438.254 245.503 438.28 249.32Z" fill="#BCBEC0" stroke="#231F20" stroke-width="7.5" stroke-miterlimit="10"/>
<path d="M318.76 160.2H342.96" stroke="#F1983C" stroke-width="7.5" stroke-miterlimit="10"/>
<path d="M318.76 179.6H368.42" stroke="#F1983C" stroke-width="7.5" stroke-miterlimit="10"/>
<path d="M332.74 191.48H368.42" stroke="#F1983C" stroke-width="7.5" stroke-miterlimit="10"/>
<path d="M318.76 203.38H368.42" stroke="#F1983C" stroke-width="7.5" stroke-miterlimit="10"/>
<path d="M332.74 215.26H368.42" stroke="#F1983C" stroke-width="7.5" stroke-miterlimit="10"/>
<path d="M318.76 227.16H368.42" stroke="#F1983C" stroke-width="7.5" stroke-miterlimit="10"/>
<path d="M332.74 239.04H368.42" stroke="#F1983C" stroke-width="7.5" stroke-miterlimit="10"/>
<path d="M322.96 194.96C324.882 194.96 326.44 193.402 326.44 191.48C326.44 189.558 324.882 188 322.96 188C321.038 188 319.48 189.558 319.48 191.48C319.48 193.402 321.038 194.96 322.96 194.96Z" fill="#F1F2F2" stroke="#F1983C" stroke-width="7.5" stroke-miterlimit="10"/>
<path d="M322.96 218.74C324.882 218.74 326.44 217.182 326.44 215.26C326.44 213.338 324.882 211.78 322.96 211.78C321.038 211.78 319.48 213.338 319.48 215.26C319.48 217.182 321.038 218.74 322.96 218.74Z" fill="#F1F2F2" stroke="#F1983C" stroke-width="7.5" stroke-miterlimit="10"/>
<path d="M322.96 242.52C324.882 242.52 326.44 240.962 326.44 239.04C326.44 237.118 324.882 235.56 322.96 235.56C321.038 235.56 319.48 237.118 319.48 239.04C319.48 240.962 321.038 242.52 322.96 242.52Z" fill="#F1F2F2" stroke="#F1983C" stroke-width="7.5" stroke-miterlimit="10"/>
<path d="M447.78 271.54V258.8H429.78C423.173 257.54 416.387 257.54 409.78 258.8H391.78V272.2C391.78 280.2 404.36 286.52 419.78 286.52C435.2 286.52 447.78 280.1 447.78 272.2C447.84 272 447.8 271.76 447.78 271.54Z" fill="#F1983C"/>
<path d="M419.78 273.14C435.288 273.14 447.86 266.72 447.86 258.8C447.86 250.88 435.288 244.46 419.78 244.46C404.272 244.46 391.7 250.88 391.7 258.8C391.7 266.72 404.272 273.14 419.78 273.14Z" fill="#F8D366"/>
<path d="M447.78 248V235.22H429.78C423.173 233.96 416.387 233.96 409.78 235.22H391.78V248.6C391.78 256.6 404.36 262.94 419.78 262.94C435.2 262.94 447.78 256.52 447.78 248.6C447.84 248.38 447.8 248.18 447.78 248Z" fill="#F1983C"/>
<path d="M419.78 249.56C435.288 249.56 447.86 243.14 447.86 235.22C447.86 227.3 435.288 220.88 419.78 220.88C404.272 220.88 391.7 227.3 391.7 235.22C391.7 243.14 404.272 249.56 419.78 249.56Z" fill="#F8D366"/>
<path d="M447.78 225.58V212.86H429.78C423.175 211.58 416.385 211.58 409.78 212.86H391.78V226.24C391.78 234.24 404.36 240.58 419.78 240.58C435.2 240.58 447.78 234.16 447.78 226.24C447.84 226 447.8 225.82 447.78 225.58Z" fill="#F1983C"/>
<path d="M419.78 227.2C435.288 227.2 447.86 220.78 447.86 212.86C447.86 204.94 435.288 198.52 419.78 198.52C404.272 198.52 391.7 204.94 391.7 212.86C391.7 220.78 404.272 227.2 419.78 227.2Z" fill="#F8D366"/>
<path d="M419.78 220.9C428.473 220.9 435.52 217.3 435.52 212.86C435.52 208.42 428.473 204.82 419.78 204.82C411.087 204.82 404.04 208.42 404.04 212.86C404.04 217.3 411.087 220.9 419.78 220.9Z" fill="#F1983C"/>
<path d="M406.86 284.92C411.081 286.001 415.423 286.539 419.78 286.52C435.28 286.52 447.78 280.1 447.78 272.2V258.8" stroke="#131636" stroke-width="4" stroke-linejoin="round"/>
<path d="M391.68 258.8V272.2C391.68 275.92 394.48 279.3 399.04 281.86" stroke="#131636" stroke-width="4" stroke-linejoin="round"/>
<path d="M446.46 254.34C447.382 255.647 447.89 257.201 447.92 258.8C447.92 266.8 435.36 273.14 419.92 273.14C404.48 273.14 391.92 266.72 391.92 258.8C391.876 257.102 392.343 255.43 393.26 254" stroke="#131636" stroke-width="4" stroke-linejoin="round"/>
<path d="M391.68 235.22V248.6C391.68 256.6 404.26 262.94 419.68 262.94C435.1 262.94 447.68 256.52 447.68 248.6V235.22" stroke="#131636" stroke-width="4" stroke-linejoin="round"/>
<path d="M446.46 230.76C447.375 232.071 447.883 233.622 447.92 235.22C447.92 243.22 435.36 249.56 419.92 249.56C404.48 249.56 391.92 243.14 391.92 235.22C391.919 233.498 392.442 231.817 393.42 230.4" stroke="#131636" stroke-width="4" stroke-linejoin="round"/>
<path d="M391.68 212.86V226.24C391.68 234.24 404.26 240.58 419.68 240.58C435.1 240.58 447.68 234.16 447.68 226.24V212.86" stroke="#131636" stroke-width="4" stroke-linejoin="round"/>
<path d="M419.78 227.2C435.288 227.2 447.86 220.78 447.86 212.86C447.86 204.94 435.288 198.52 419.78 198.52C404.272 198.52 391.7 204.94 391.7 212.86C391.7 220.78 404.272 227.2 419.78 227.2Z" stroke="#131636" stroke-width="4" stroke-linejoin="round"/>
<path d="M425.26 220.38C423.441 220.733 421.593 220.907 419.74 220.9" stroke="#131636" stroke-width="4" stroke-linejoin="round"/>
<path d="M419.78 204.82C428.5 204.82 435.52 208.44 435.52 212.82C435.52 215.04 433.76 217.02 430.92 218.48" stroke="#131636" stroke-width="4" stroke-linejoin="round"/>
<path d="M421.32 168.68H447.7" stroke="#FFD44D" stroke-width="7.5" stroke-miterlimit="10"/>
<path d="M434.5 155.48V181.86" stroke="#FFD44D" stroke-width="7.5" stroke-miterlimit="10"/>
<path d="M397.9 181.86H414.2" stroke="#FFD44D" stroke-width="7.5" stroke-miterlimit="10"/>
<path d="M406.06 173.7V190.02" stroke="#FFD44D" stroke-width="7.5" stroke-miterlimit="10"/>
<path d="M174.027 127.649L88.3057 41.9276C85.0456 38.6675 79.7599 38.6675 76.4998 41.9276L26.6884 91.739C23.4283 94.9991 23.4283 100.285 26.6884 103.545L112.41 189.266C115.67 192.526 120.955 192.526 124.215 189.266L174.027 139.455C177.287 136.194 177.287 130.909 174.027 127.649Z" fill="#0086F4"/>
<path d="M158.416 112.038L88.3025 41.9238C85.0424 38.6637 79.7568 38.6637 76.4967 41.9238L33.4424 84.9781C30.1823 88.2382 30.1823 93.5239 33.4424 96.784L103.556 166.898C106.816 170.158 112.102 170.158 115.362 166.898L158.416 123.844C161.677 120.583 161.677 115.298 158.416 112.038Z" fill="#0086F4"/>
<path d="M168.155 145.319L70.6283 47.7919L54.9673 63.4529L152.494 160.98L168.155 145.319Z" fill="#24285B"/>
<path d="M179.808 105.38H58.58C53.9695 105.38 50.232 109.118 50.232 113.728V184.172C50.232 188.782 53.9695 192.52 58.58 192.52H179.808C184.418 192.52 188.156 188.782 188.156 184.172V113.728C188.156 109.118 184.418 105.38 179.808 105.38Z" fill="#0086F4"/>
<path d="M157.736 105.38H58.58C53.9695 105.38 50.232 109.118 50.232 113.728V174.616C50.232 179.226 53.9695 182.964 58.58 182.964H157.736C162.346 182.964 166.084 179.226 166.084 174.616V113.728C166.084 109.118 162.346 105.38 157.736 105.38Z" fill="#0099F5"/>
<path d="M97.772 163.208H71.268C69.8409 163.208 68.684 164.365 68.684 165.792V165.796C68.684 167.223 69.8409 168.38 71.268 168.38H97.772C99.1991 168.38 100.356 167.223 100.356 165.796V165.792C100.356 164.365 99.1991 163.208 97.772 163.208Z" fill="white"/>
<path d="M127.644 163.208H110.744C109.317 163.208 108.16 164.365 108.16 165.792V165.796C108.16 167.223 109.317 168.38 110.744 168.38H127.644C129.071 168.38 130.228 167.223 130.228 165.796V165.792C130.228 164.365 129.071 163.208 127.644 163.208Z" fill="white"/>
<path d="M167.124 163.208H140.62C139.193 163.208 138.036 164.365 138.036 165.792V165.796C138.036 167.223 139.193 168.38 140.62 168.38H167.124C168.551 168.38 169.708 167.223 169.708 165.796V165.792C169.708 164.365 168.551 163.208 167.124 163.208Z" fill="white"/>
<path d="M89.556 119.188H72.796C70.525 119.188 68.684 121.029 68.684 123.3V136.472C68.684 138.743 70.525 140.584 72.796 140.584H89.556C91.827 140.584 93.668 138.743 93.668 136.472V123.3C93.668 121.029 91.827 119.188 89.556 119.188Z" fill="#FFD44D"/>
</g>
<defs>
<clipPath id="clip0_2_128">
<rect width="600" height="600" fill="white"/>
</clipPath>
</defs>
</svg>
